# Blender v2.81 (sub 16) OBJ File: '12.blend'
# www.blender.org
mtllib tree.mtl
v -2.563296 3.712994 -7.415160
v -0.470441 2.630190 -7.562821
v -2.785941 3.476571 -7.180954
v -0.633972 2.198842 -7.270533
v -2.738601 3.486674 -6.783493
v -0.648786 2.228139 -6.725410
v -2.468617 3.733200 -6.620237
v -0.500069 2.688785 -6.472577
v -2.245972 3.969622 -6.854443
v -0.336537 3.120132 -6.764865
v -2.293312 3.959519 -7.251904
v -0.321724 3.090835 -7.309987
v -1.955454 3.167056 -7.483058
v -1.307577 2.812520 -7.483058
v -1.501044 2.458980 -7.250379
v -2.148921 2.813517 -7.250379
v -1.501044 2.458980 -6.785019
v -2.148921 2.813517 -6.785019
v -1.307577 2.812520 -6.552340
v -1.955454 3.167056 -6.552340
v -1.114110 3.166059 -6.785019
v -1.761988 3.520596 -6.785019
v -1.114110 3.166059 -7.250378
v -1.761988 3.520596 -7.250378
v 0.000000 0.038167 -8.138471
v -0.000000 4.799263 -7.917984
v 0.970617 0.038167 -7.578084
v 0.779670 4.799263 -7.467842
v 0.970617 0.038167 -6.457313
v 0.779670 4.799263 -6.567556
v 0.000000 0.038167 -5.896927
v -0.000000 4.799263 -6.117413
v -0.970617 0.038167 -6.457313
v -0.779671 4.799263 -6.567556
v -0.970617 0.038167 -7.578084
v -0.779671 4.799263 -7.467842
v 0.174801 1.625199 -8.017698
v 0.174801 3.212231 -8.017698
v 1.040827 3.212231 -7.517699
v 1.040827 1.625199 -7.517699
v 1.040827 3.212231 -6.517699
v 1.040827 1.625199 -6.517699
v 0.174801 3.212231 -6.017699
v 0.174801 1.625199 -6.017699
v -0.691224 3.212231 -6.517699
v -0.691224 1.625199 -6.517699
v -0.691224 3.212231 -7.517699
v -0.691224 1.625199 -7.517699
vn -0.1773 -0.4902 -0.8534
vn -0.2750 -0.9611 0.0238
vn -0.1699 -0.4511 0.8762
vn 0.0068 0.5538 0.8326
vn 0.9436 -0.3284 0.0433
vn 0.0070 0.5100 -0.8602
vn 0.0762 0.9967 -0.0278
vn -0.6939 0.7172 0.0644
vn 0.6594 0.7504 -0.0450
vn 0.4801 0.8772 0.0000
vn 0.2722 0.3746 -0.8863
vn 0.2400 0.4386 -0.8660
vn 0.3264 0.4342 0.8396
vn 0.2400 0.4386 0.8660
vn -0.3776 -0.2889 0.8798
vn -0.2400 -0.4386 0.8660
vn -0.7345 -0.6769 0.0482
vn -0.4801 -0.8772 0.0000
vn -0.4330 -0.3515 -0.8301
vn -0.2400 -0.4386 -0.8660
vn 0.4970 0.1088 -0.8609
vn 0.9867 0.1624 0.0000
vn 0.4970 0.1088 0.8609
vn -0.5000 -0.0007 0.8660
vn 0.0000 1.0000 -0.0000
vn -0.5000 -0.0007 -0.8660
vn -0.9985 -0.0556 0.0000
vn -0.0000 -1.0000 0.0000
vn -0.9849 0.1734 0.0000
vn -1.0000 -0.0000 0.0000
vn -0.4964 0.1201 -0.8598
vn -0.5000 -0.0000 -0.8660
vn -0.4964 0.1201 0.8598
vn -0.5000 -0.0000 0.8660
vn 0.5000 0.0108 0.8660
vn 0.5000 0.0000 0.8660
vn 0.9990 -0.0442 0.0000
vn 1.0000 0.0000 0.0000
vn 0.5000 0.0108 -0.8660
vn 0.5000 0.0000 -0.8660
usemtl Материал.001
s off
f 14//1 2//1 4//1 15//1
f 15//2 4//2 6//2 17//2
f 17//3 6//3 8//3 19//3
f 19//4 8//4 10//4 21//4
f 4//5 2//5 12//5 10//5 8//5 6//5
f 23//6 12//6 2//6 14//6
f 21//7 10//7 12//7 23//7
f 1//8 3//8 5//8 7//8 9//8 11//8
f 9//9 22//9 24//9 11//9
f 22//10 21//10 23//10 24//10
f 11//11 24//11 13//11 1//11
f 24//12 23//12 14//12 13//12
f 7//13 20//13 22//13 9//13
f 20//14 19//14 21//14 22//14
f 5//15 18//15 20//15 7//15
f 18//16 17//16 19//16 20//16
f 3//17 16//17 18//17 5//17
f 16//18 15//18 17//18 18//18
f 1//19 13//19 16//19 3//19
f 13//20 14//20 15//20 16//20
f 38//21 26//21 28//21 39//21
f 39//22 28//22 30//22 41//22
f 41//23 30//23 32//23 43//23
f 43//24 32//24 34//24 45//24
f 28//25 26//25 36//25 34//25 32//25 30//25
f 47//26 36//26 26//26 38//26
f 45//27 34//27 36//27 47//27
f 25//28 27//28 29//28 31//28 33//28 35//28
f 33//29 46//29 48//29 35//29
f 46//30 45//30 47//30 48//30
f 35//31 48//31 37//31 25//31
f 48//32 47//32 38//32 37//32
f 31//33 44//33 46//33 33//33
f 44//34 43//34 45//34 46//34
f 29//35 42//35 44//35 31//35
f 42//36 41//36 43//36 44//36
f 27//37 40//37 42//37 29//37
f 40//38 39//38 41//38 42//38
f 25//39 37//39 40//39 27//39
f 37//40 38//40 39//40 40//40
v -0.325413 5.109284 -8.881871
v -0.994431 5.458456 -8.745903
v -0.978987 5.482953 -9.473846
v -0.132699 5.328693 -9.677126
v 0.133819 5.328693 -9.060509
v -0.406362 5.328693 -8.424241
v -1.074057 6.067576 -9.279537
v -0.556247 6.067576 -9.741642
v 0.114848 5.878575 -9.254602
v -0.247995 6.067576 -8.535979
v -0.810673 6.067576 -8.597017
v -0.496875 6.333103 -9.096941
vn -0.4686 -0.8825 -0.0396
vn -0.3782 -0.8590 0.3450
vn -0.2424 -0.9186 -0.3122
vn 0.3736 -0.9134 -0.1615
vn 0.5209 -0.7302 0.4422
vn -0.4898 -0.0647 0.8694
vn -0.9880 -0.1520 -0.0261
vn -0.2673 -0.2348 -0.9346
vn 0.9126 -0.1077 -0.3944
vn 0.7607 -0.0654 0.6458
vn -0.9160 0.1899 0.3535
vn -0.6594 0.1384 -0.7389
vn 0.6143 0.2880 -0.7347
vn 0.8967 0.1745 0.4068
vn -0.1063 0.1709 0.9795
vn -0.4569 0.8719 0.1763
vn -0.3026 0.8908 -0.3390
vn 0.4907 0.7888 -0.3701
vn 0.6100 0.7859 0.1013
vn -0.0482 0.8944 0.4447
usemtl Материал
s off
f 49//41 50//41 51//41
f 50//42 49//42 54//42
f 49//43 51//43 52//43
f 49//44 52//44 53//44
f 49//45 53//45 54//45
f 50//46 54//46 59//46
f 51//47 50//47 55//47
f 52//48 51//48 56//48
f 53//49 52//49 57//49
f 54//50 53//50 58//50
f 50//51 59//51 55//51
f 51//52 55//52 56//52
f 52//53 56//53 57//53
f 53//54 57//54 58//54
f 54//55 58//55 59//55
f 55//56 59//56 60//56
f 56//57 55//57 60//57
f 57//58 56//58 60//58
f 58//59 57//59 60//59
f 59//60 58//60 60//60
v 2.560390 3.806881 -7.912166
v 1.406501 4.532847 -7.085590
v 0.817146 4.583779 -8.479970
v 2.250197 4.263057 -9.584926
v 3.279953 4.263057 -8.641415
v 2.795718 4.263057 -6.975027
v 0.801892 5.799276 -8.030477
v 1.391694 5.799276 -9.347382
v 3.079001 5.406322 -8.993581
v 3.001254 5.799276 -7.321639
v 1.881711 5.799276 -6.959255
v 2.052263 6.351335 -8.174536
vn -0.4439 -0.8825 0.1554
vn -0.2042 -0.8590 0.4694
vn -0.3489 -0.9186 -0.1858
vn 0.2750 -0.9134 -0.3001
vn 0.6561 -0.7302 0.1907
vn -0.0917 -0.0647 0.9937
vn -0.9124 -0.1520 0.3801
vn -0.6260 -0.2348 -0.7437
vn 0.6716 -0.1077 -0.7330
vn 0.9582 -0.0654 0.2784
vn -0.6915 0.1899 0.6970
vn -0.9039 0.1384 -0.4048
vn 0.2603 0.2880 -0.9216
vn 0.9846 0.1745 0.0048
vn 0.3034 0.1709 0.9374
vn -0.3449 0.8719 0.3477
vn -0.4147 0.8908 -0.1857
vn 0.2966 0.7888 -0.5383
vn 0.5982 0.7859 -0.1569
vn 0.1378 0.8944 0.4256
usemtl Материал
s off
f 61//61 62//61 63//61
f 62//62 61//62 66//62
f 61//63 63//63 64//63
f 61//64 64//64 65//64
f 61//65 65//65 66//65
f 62//66 66//66 71//66
f 63//67 62//67 67//67
f 64//68 63//68 68//68
f 65//69 64//69 69//69
f 66//70 65//70 70//70
f 62//71 71//71 67//71
f 63//72 67//72 68//72
f 64//73 68//73 69//73
f 65//74 69//74 70//74
f 66//75 70//75 71//75
f 67//76 71//76 72//76
f 68//77 67//77 72//77
f 69//78 68//78 72//78
f 70//79 69//79 72//79
f 71//80 70//80 72//80
v -1.777861 4.876153 -6.200313
v -1.036589 5.337779 -6.715228
v -0.674718 5.370166 -5.823235
v -1.596050 5.166225 -5.133896
v -2.242087 5.166225 -5.743279
v -1.918851 5.166225 -6.798326
v -0.660878 6.143074 -6.108887
v -1.048015 6.143074 -5.277019
v -2.117564 5.893203 -5.517516
v -2.052726 6.143074 -6.579839
v -1.337569 6.143074 -6.799932
v -1.457206 6.494116 -6.028813
vn 0.4461 -0.8825 -0.1489
vn 0.2110 -0.8590 -0.4664
vn 0.3461 -0.9186 0.1908
vn -0.2793 -0.9134 0.2961
vn -0.6533 -0.7302 -0.2002
vn 0.1060 -0.0647 -0.9923
vn 0.9178 -0.1520 -0.3668
vn 0.6151 -0.2348 0.7527
vn -0.6822 -0.1077 0.7232
vn -0.9541 -0.0654 -0.2923
vn 0.7015 0.1899 -0.6869
vn 0.8979 0.1384 0.4179
vn -0.2736 0.2880 0.9177
vn -0.9845 0.1745 -0.0190
vn -0.2898 0.1709 -0.9417
vn 0.3499 0.8719 -0.3426
vn 0.4120 0.8908 0.1917
vn -0.3044 0.7888 0.5340
vn -0.6004 0.7859 0.1482
vn -0.1316 0.8944 -0.4276
usemtl Материал
s off
f 73//81 74//81 75//81
f 74//82 73//82 78//82
f 73//83 75//83 76//83
f 73//84 76//84 77//84
f 73//85 77//85 78//85
f 74//86 78//86 83//86
f 75//87 74//87 79//87
f 76//88 75//88 80//88
f 77//89 76//89 81//89
f 78//90 77//90 82//90
f 74//91 83//91 79//91
f 75//92 79//92 80//92
f 76//93 80//93 81//93
f 77//94 81//94 82//94
f 78//95 82//95 83//95
f 79//96 83//96 84//96
f 80//97 79//97 84//97
f 81//98 80//98 84//98
f 82//99 81//99 84//99
f 83//100 82//100 84//100
v 0.107683 3.994977 -5.315275
v -0.229294 4.560523 -6.368422
v 0.945445 4.600200 -6.472020
v 1.422080 4.350349 -5.145339
v 0.476337 4.350349 -4.607419
v -0.643404 4.350349 -5.364846
v 0.615824 5.547102 -6.590795
v 1.451208 5.547102 -5.838652
v 0.785488 5.240981 -4.672216
v -0.435554 5.547102 -5.129588
v -0.436577 5.547102 -6.046290
v 0.423695 5.977170 -5.629289
vn -0.0117 -0.8825 -0.4702
vn -0.3841 -0.8590 -0.3384
vn 0.2839 -0.9186 -0.2750
vn 0.2012 -0.9134 0.3538
vn -0.3828 -0.7302 0.5660
vn -0.9176 -0.0647 -0.3922
vn -0.0817 -0.1520 -0.9850
vn 0.8999 -0.2348 -0.3675
vn 0.4915 -0.1077 0.8642
vn -0.5591 -0.0654 0.8265
vn -0.4512 0.1899 -0.8720
vn 0.6627 0.1384 -0.7360
vn 0.7972 0.2880 0.5306
vn -0.3067 0.1745 0.9357
vn -0.9853 0.1709 0.0011
vn -0.2250 0.8719 -0.4349
vn 0.3040 0.8908 -0.3377
vn 0.4213 0.7888 0.4475
vn -0.0343 0.7859 0.6174
vn -0.4473 0.8944 0.0005
usemtl Материал
s off
f 85//101 86//101 87//101
f 86//102 85//102 90//102
f 85//103 87//103 88//103
f 85//104 88//104 89//104
f 85//105 89//105 90//105
f 86//106 90//106 95//106
f 87//107 86//107 91//107
f 88//108 87//108 92//108
f 89//109 88//109 93//109
f 90//110 89//110 94//110
f 86//111 95//111 91//111
f 87//112 91//112 92//112
f 88//113 92//113 93//113
f 89//114 93//114 94//114
f 90//115 94//115 95//115
f 91//116 95//116 96//116
f 92//117 91//117 96//117
f 93//118 92//118 96//118
f 94//119 93//119 96//119
f 95//120 94//120 96//120
v 0.405336 4.735077 -8.161419
v 1.686574 5.685243 -6.816184
v -0.013517 5.751904 -5.798669
v -1.706350 5.332133 -7.455097
v -0.670751 5.332133 -8.961416
v 1.577183 5.332133 -8.636898
v 0.571858 7.342783 -5.860660
v -1.242303 7.342783 -6.385576
v -1.090650 6.828473 -8.636898
v 1.090542 7.342783 -8.840251
v 1.763882 7.342783 -7.455097
v 0.157698 8.065333 -7.455097
vn 0.2156 -0.8825 0.4180
vn 0.4933 -0.8590 0.1370
vn -0.1355 -0.9186 0.3713
vn -0.3354 -0.9134 -0.2306
vn 0.0976 -0.7302 -0.6763
vn 0.9968 -0.0647 -0.0473
vn 0.5032 -0.1520 0.8507
vn -0.6495 -0.2348 0.7232
vn -0.8192 -0.1077 -0.5632
vn 0.1426 -0.0654 -0.9876
vn 0.7863 0.1899 0.5879
vn -0.2753 0.1384 0.9514
vn -0.9488 0.2880 -0.1297
vn -0.1321 0.1745 -0.9757
vn 0.8861 0.1709 -0.4308
vn 0.3922 0.8719 0.2932
vn -0.1263 0.8908 0.4365
vn -0.5743 0.7888 -0.2189
vn -0.2385 0.7859 -0.5706
vn 0.4023 0.8944 -0.1956
usemtl Материал
s off
f 97//121 98//121 99//121
f 98//122 97//122 102//122
f 97//123 99//123 100//123
f 97//124 100//124 101//124
f 97//125 101//125 102//125
f 98//126 102//126 107//126
f 99//127 98//127 103//127
f 100//128 99//128 104//128
f 101//129 100//129 105//129
f 102//130 101//130 106//130
f 98//131 107//131 103//131
f 99//132 103//132 104//132
f 100//133 104//133 105//133
f 101//134 105//134 106//134
f 102//135 106//135 107//135
f 103//136 107//136 108//136
f 104//137 103//137 108//137
f 105//138 104//138 108//138
f 106//139 105//139 108//139
f 107//140 106//140 108//140
v -2.370587 4.289655 -7.678248
v -1.659619 4.852015 -8.516977
v -0.953740 4.891469 -7.580568
v -1.821919 4.643026 -6.480018
v -2.773606 4.643026 -6.994590
v -2.724211 4.643026 -8.337927
v -1.027090 5.833040 -7.921154
v -1.221739 5.833040 -6.820469
v -2.556182 5.528643 -6.767920
v -2.813232 5.833040 -8.038733
v -2.040486 5.833040 -8.522231
v -1.939323 6.260685 -7.577001
vn 0.3927 -0.8825 -0.2588
vn 0.0837 -0.8590 -0.5050
vn 0.3836 -0.9186 0.0952
vn -0.1936 -0.9134 0.3580
vn -0.6828 -0.7302 -0.0251
vn -0.1531 -0.0647 -0.9861
vn 0.7923 -0.1520 -0.5909
vn 0.7882 -0.2348 0.5688
vn -0.4729 -0.1077 0.8745
vn -0.9972 -0.0654 -0.0367
vn 0.5009 0.1899 -0.8444
vn 0.9752 0.1384 0.1725
vn -0.0280 0.2880 0.9572
vn -0.9561 0.1745 0.2352
vn -0.5226 0.1709 -0.8353
vn 0.2498 0.8719 -0.4212
vn 0.4475 0.8908 0.0791
vn -0.1565 0.7888 0.5944
vn -0.5419 0.7859 0.2979
vn -0.2373 0.8944 -0.3792
usemtl Материал
s off
f 109//141 110//141 111//141
f 110//142 109//142 114//142
f 109//143 111//143 112//143
f 109//144 112//144 113//144
f 109//145 113//145 114//145
f 110//146 114//146 119//146
f 111//147 110//147 115//147
f 112//148 111//148 116//148
f 113//149 112//149 117//149
f 114//150 113//150 118//150
f 110//151 119//151 115//151
f 111//152 115//152 116//152
f 112//153 116//153 117//153
f 113//154 117//154 118//154
f 114//155 118//155 119//155
f 115//156 119//156 120//156
f 116//157 115//157 120//157
f 117//158 116//158 120//158
f 118//159 117//159 120//159
f 119//160 118//160 120//160
v -2.419734 3.586554 -7.059414
v -2.844892 3.808452 -6.973007
v -2.835078 3.824019 -7.435613
v -2.297264 3.725988 -7.564796
v -2.127893 3.725988 -7.172938
v -2.471176 3.725988 -6.768592
v -2.895494 4.195546 -7.312130
v -2.566427 4.195546 -7.605796
v -2.139949 4.075437 -7.296284
v -2.370534 4.195546 -6.839601
v -2.728114 4.195546 -6.878391
v -2.528697 4.364287 -7.196091
vn -0.4686 -0.8825 -0.0396
vn -0.3782 -0.8590 0.3450
vn -0.2424 -0.9186 -0.3122
vn 0.3736 -0.9134 -0.1615
vn 0.5209 -0.7302 0.4422
vn -0.4898 -0.0647 0.8694
vn -0.9880 -0.1520 -0.0261
vn -0.2673 -0.2348 -0.9346
vn 0.9126 -0.1077 -0.3944
vn 0.7607 -0.0654 0.6458
vn -0.9160 0.1899 0.3535
vn -0.6594 0.1384 -0.7389
vn 0.6143 0.2880 -0.7347
vn 0.8967 0.1745 0.4068
vn -0.1063 0.1709 0.9795
vn -0.4569 0.8719 0.1763
vn -0.3026 0.8908 -0.3390
vn 0.4907 0.7888 -0.3701
vn 0.6100 0.7859 0.1013
vn -0.0482 0.8944 0.4447
usemtl Материал
s off
f 121//161 122//161 123//161
f 122//162 121//162 126//162
f 121//163 123//163 124//163
f 121//164 124//164 125//164
f 121//165 125//165 126//165
f 122//166 126//166 131//166
f 123//167 122//167 127//167
f 124//168 123//168 128//168
f 125//169 124//169 129//169
f 126//170 125//170 130//170
f 122//171 131//171 127//171
f 123//172 127//172 128//172
f 124//173 128//173 129//173
f 125//174 129//174 130//174
f 126//175 130//175 131//175
f 127//176 131//176 132//176
f 128//177 127//177 132//177
f 129//178 128//178 132//178
f 130//179 129//179 132//179
f 131//180 130//180 132//180
v 0.338141 3.353457 -8.446641
v -0.395153 3.814806 -7.921354
v -0.769686 3.847174 -8.807478
v 0.141014 3.643355 -9.509674
v 0.795421 3.643355 -8.910076
v 0.487691 3.643355 -7.851091
v -0.779380 4.619618 -8.521827
v -0.404562 4.619618 -9.358716
v 0.667717 4.369897 -9.133877
v 0.618308 4.619618 -8.071362
v -0.093158 4.619618 -7.841068
v 0.015228 4.970450 -8.613377
vn -0.4439 -0.8825 0.1554
vn -0.2042 -0.8590 0.4694
vn -0.3489 -0.9186 -0.1858
vn 0.2750 -0.9134 -0.3001
vn 0.6561 -0.7302 0.1907
vn -0.0917 -0.0647 0.9937
vn -0.9124 -0.1520 0.3801
vn -0.6260 -0.2348 -0.7437
vn 0.6716 -0.1077 -0.7330
vn 0.9582 -0.0654 0.2784
vn -0.6915 0.1899 0.6970
vn -0.9039 0.1384 -0.4048
vn 0.2603 0.2880 -0.9216
vn 0.9846 0.1745 0.0048
vn 0.3034 0.1709 0.9374
vn -0.3449 0.8719 0.3477
vn -0.4147 0.8908 -0.1857
vn 0.2966 0.7888 -0.5383
vn 0.5982 0.7859 -0.1569
vn 0.1378 0.8944 0.4256
usemtl Материал
s off
f 133//181 134//181 135//181
f 134//182 133//182 138//182
f 133//183 135//183 136//183
f 133//184 136//184 137//184
f 133//185 137//185 138//185
f 134//186 138//186 143//186
f 135//187 134//187 139//187
f 136//188 135//188 140//188
f 137//189 136//189 141//189
f 138//190 137//190 142//190
f 134//191 143//191 139//191
f 135//192 139//192 140//192
f 136//193 140//193 141//193
f 137//194 141//194 142//194
f 138//195 142//195 143//195
f 139//196 143//196 144//196
f 140//197 139//197 144//197
f 141//198 140//198 144//198
f 142//199 141//199 144//199
f 143//200 142//200 144//200
v -2.469677 2.757752 -7.830472
v -1.998601 3.051114 -8.157699
v -1.768633 3.071696 -7.590839
v -2.354136 2.942092 -7.152766
v -2.764691 2.942092 -7.540028
v -2.559275 2.942092 -8.210506
v -1.759838 3.562877 -7.772371
v -2.005862 3.562877 -7.243721
v -2.685558 3.404084 -7.396556
v -2.644353 3.562877 -8.071659
v -2.189873 3.562877 -8.211528
v -2.265902 3.785963 -7.721484
vn 0.4461 -0.8825 -0.1489
vn 0.2110 -0.8590 -0.4664
vn 0.3461 -0.9186 0.1908
vn -0.2793 -0.9134 0.2961
vn -0.6533 -0.7302 -0.2002
vn 0.1060 -0.0647 -0.9923
vn 0.9178 -0.1520 -0.3668
vn 0.6151 -0.2348 0.7527
vn -0.6822 -0.1077 0.7232
vn -0.9541 -0.0654 -0.2923
vn 0.7015 0.1899 -0.6869
vn 0.8979 0.1384 0.4179
vn -0.2736 0.2880 0.9177
vn -0.9845 0.1745 -0.0190
vn -0.2898 0.1709 -0.9417
vn 0.3499 0.8719 -0.3426
vn 0.4120 0.8908 0.1917
vn -0.3044 0.7888 0.5340
vn -0.6004 0.7859 0.1482
vn -0.1316 0.8944 -0.4276
usemtl Материал
s off
f 145//201 146//201 147//201
f 146//202 145//202 150//202
f 145//203 147//203 148//203
f 145//204 148//204 149//204
f 145//205 149//205 150//205
f 146//206 150//206 155//206
f 147//207 146//207 151//207
f 148//208 147//208 152//208
f 149//209 148//209 153//209
f 150//210 149//210 154//210
f 146//211 155//211 151//211
f 147//212 151//212 152//212
f 148//213 152//213 153//213
f 149//214 153//214 154//214
f 150//215 154//215 155//215
f 151//216 155//216 156//216
f 152//217 151//217 156//217
f 153//218 152//218 156//218
f 154//219 153//219 156//219
f 155//220 154//220 156//220
v -3.299078 2.778372 -6.554830
v -3.513226 3.137774 -7.224102
v -2.766682 3.162989 -7.289938
v -2.463782 3.004210 -6.446836
v -3.064799 3.004210 -6.104990
v -3.776391 3.004210 -6.586333
v -2.976156 3.764742 -7.365419
v -2.445271 3.764742 -6.887434
v -2.868335 3.570203 -6.146168
v -3.644303 3.764742 -6.436826
v -3.644953 3.764742 -7.019389
v -3.098253 4.038049 -6.754385
vn -0.0117 -0.8825 -0.4702
vn -0.3841 -0.8590 -0.3384
vn 0.2839 -0.9186 -0.2750
vn 0.2012 -0.9134 0.3538
vn -0.3828 -0.7302 0.5660
vn -0.9176 -0.0647 -0.3922
vn -0.0817 -0.1520 -0.9850
vn 0.8999 -0.2348 -0.3675
vn 0.4915 -0.1077 0.8642
vn -0.5591 -0.0654 0.8265
vn -0.4512 0.1899 -0.8720
vn 0.6627 0.1384 -0.7360
vn 0.7972 0.2880 0.5306
vn -0.3067 0.1745 0.9357
vn -0.9853 0.1709 0.0011
vn -0.2250 0.8719 -0.4349
vn 0.3040 0.8908 -0.3377
vn 0.4213 0.7888 0.4475
vn -0.0343 0.7859 0.6174
vn -0.4473 0.8944 0.0005
usemtl Материал
s off
f 157//221 158//221 159//221
f 158//222 157//222 162//222
f 157//223 159//223 160//223
f 157//224 160//224 161//224
f 157//225 161//225 162//225
f 158//226 162//226 167//226
f 159//227 158//227 163//227
f 160//228 159//228 164//228
f 161//229 160//229 165//229
f 162//230 161//230 166//230
f 158//231 167//231 163//231
f 159//232 163//232 164//232
f 160//233 164//233 165//233
f 161//234 165//234 166//234
f 162//235 166//235 167//235
f 163//236 167//236 168//236
f 164//237 163//237 168//237
f 165//238 164//238 168//238
f 166//239 165//239 168//239
f 167//240 166//240 168//240
v 1.879674 2.723084 -7.194765
v 2.693897 3.326911 -6.339872
v 1.613494 3.369275 -5.693244
v 0.537703 3.102511 -6.745899
v 1.195824 3.102511 -7.703161
v 2.624379 3.102511 -7.496931
v 1.985498 4.380273 -5.732639
v 0.832604 4.380273 -6.066222
v 0.928979 4.053431 -7.496931
v 2.315120 4.380273 -7.626161
v 2.743026 4.380273 -6.745899
v 1.722301 4.839452 -6.745899
vn 0.2156 -0.8825 0.4180
vn 0.4933 -0.8590 0.1370
vn -0.1355 -0.9186 0.3713
vn -0.3354 -0.9134 -0.2306
vn 0.0976 -0.7302 -0.6763
vn 0.9968 -0.0647 -0.0473
vn 0.5032 -0.1520 0.8507
vn -0.6495 -0.2348 0.7232
vn -0.8192 -0.1077 -0.5632
vn 0.1426 -0.0654 -0.9876
vn 0.7863 0.1899 0.5879
vn -0.2753 0.1384 0.9514
vn -0.9488 0.2880 -0.1297
vn -0.1321 0.1745 -0.9757
vn 0.8861 0.1709 -0.4308
vn 0.3922 0.8719 0.2932
vn -0.1263 0.8908 0.4365
vn -0.5743 0.7888 -0.2189
vn -0.2385 0.7859 -0.5706
vn 0.4023 0.8944 -0.1956
usemtl Материал
s off
f 169//241 170//241 171//241
f 170//242 169//242 174//242
f 169//243 171//243 172//243
f 169//244 172//244 173//244
f 169//245 173//245 174//245
f 170//246 174//246 179//246
f 171//247 170//247 175//247
f 172//248 171//248 176//248
f 173//249 172//249 177//249
f 174//250 173//250 178//250
f 170//251 179//251 175//251
f 171//252 175//252 176//252
f 172//253 176//253 177//253
f 173//254 177//254 178//254
f 174//255 178//255 179//255
f 175//256 179//256 180//256
f 176//257 175//257 180//257
f 177//258 176//258 180//258
f 178//259 177//259 180//259
f 179//260 178//260 180//260
v -2.680982 3.268924 -6.360400
v -2.229164 3.626302 -6.893410
v -1.780580 3.651375 -6.298325
v -2.332305 3.493490 -5.598927
v -2.937099 3.493490 -5.925937
v -2.905709 3.493490 -6.779624
v -1.827193 4.249741 -6.514766
v -1.950892 4.249741 -5.815284
v -2.798927 4.056297 -5.781889
v -2.962282 4.249741 -6.589487
v -2.471204 4.249741 -6.896749
v -2.406915 4.521508 -6.296057
vn 0.3927 -0.8825 -0.2588
vn 0.0837 -0.8590 -0.5050
vn 0.3836 -0.9186 0.0952
vn -0.1936 -0.9134 0.3580
vn -0.6828 -0.7302 -0.0251
vn -0.1531 -0.0647 -0.9861
vn 0.7923 -0.1520 -0.5909
vn 0.7882 -0.2348 0.5688
vn -0.4729 -0.1077 0.8745
vn -0.9972 -0.0654 -0.0367
vn 0.5009 0.1899 -0.8444
vn 0.9752 0.1384 0.1725
vn -0.0280 0.2880 0.9572
vn -0.9561 0.1745 0.2352
vn -0.5226 0.1709 -0.8353
vn 0.2498 0.8719 -0.4212
vn 0.4475 0.8908 0.0791
vn -0.1565 0.7888 0.5944
vn -0.5419 0.7859 0.2979
vn -0.2373 0.8944 -0.3792
usemtl Материал
s off
f 181//261 182//261 183//261
f 182//262 181//262 186//262
f 181//263 183//263 184//263
f 181//264 184//264 185//264
f 181//265 185//265 186//265
f 182//266 186//266 191//266
f 183//267 182//267 187//267
f 184//268 183//268 188//268
f 185//269 184//269 189//269
f 186//270 185//270 190//270
f 182//271 191//271 187//271
f 183//272 187//272 188//272
f 184//273 188//273 189//273
f 185//274 189//274 190//274
f 186//275 190//275 191//275
f 187//276 191//276 192//276
f 188//277 187//277 192//277
f 189//278 188//278 192//278
f 190//279 189//279 192//279
f 191//280 190//280 192//280
